<?xml version="1.0" encoding="UTF-8"?>
<svg version="1.1" xmlns="http://www.w3.org/2000/svg" width="382" height="130">
<path d="M0 0 C126.06 0 252.12 0 382 0 C382 42.9 382 85.8 382 130 C255.94 130 129.88 130 0 130 C0 87.1 0 44.2 0 0 Z " fill="#FCFDFC" transform="translate(0,0)"/>
<path d="M0 0 C0.69885997 7.68745962 -1.40858495 15.16259983 -5.73046875 21.5625 C-9.9952707 26.60194662 -14.93955401 31.23598351 -21 34 C-24.0625 33.875 -24.0625 33.875 -27 33 C-31.22476033 32.5054348 -34.24382314 32.51733392 -37.9375 34.875 C-41.00349945 38.03390852 -41.22304686 39.99352418 -41.375 44.3125 C-41.30105915 48.06869539 -41.10085177 49.80950222 -39.3125 53.1875 C-34.0914921 56.04427791 -28.82328186 55.38367157 -23 55 C-23 53.02 -23 51.04 -23 49 C-25.97 49 -28.94 49 -32 49 C-32.04241723 46.66705225 -32.04092937 44.33297433 -32 42 C-31 41 -31 41 -27.18359375 40.90234375 C-25.60153318 40.90901911 -24.01948841 40.92098125 -22.4375 40.9375 C-21.63119141 40.94201172 -20.82488281 40.94652344 -19.99414062 40.95117188 C-17.99606244 40.96299482 -15.99802217 40.98093086 -14 41 C-13.86482097 43.75164432 -13.76584749 46.49664521 -13.6875 49.25 C-13.64560547 50.02730469 -13.60371094 50.80460937 -13.56054688 51.60546875 C-13.43748557 57.3647378 -13.43748557 57.3647378 -16.14453125 60.421875 C-23.53166361 64.50450355 -31.9472239 65.61047078 -40.1875 63.41796875 C-45.36442398 60.88728493 -48.855212 56.21092859 -51 51 C-52.06471581 44.77901764 -52.06225457 38.98485175 -48.8125 33.4375 C-41.36691171 23.54461528 -28.11251538 20.39229857 -17 16 C-25.92394225 18.08151507 -34.64020262 20.14412447 -43 24 C-43.72703125 24.30679688 -44.4540625 24.61359375 -45.203125 24.9296875 C-47.34257351 25.93902056 -47.34257351 25.93902056 -48 29 C-48.7904896 26.69526085 -49.12134332 25.39633563 -48.3984375 23.03515625 C-45.00970795 16.50344471 -40.54160022 10.85001287 -33.5546875 8.00390625 C-27.86116665 6.39595586 -22.01603777 5.93319525 -16.14257812 5.3203125 C-11.00610384 4.70239078 -4.27069918 0 0 0 Z " fill="#399249" transform="translate(76,16)"/>
<path d="M0 0 C0.78052734 -0.01224609 1.56105469 -0.02449219 2.36523438 -0.03710938 C4.39070035 -0.04235217 6.41572552 0.06515672 8.4375 0.1875 C9.0975 0.8475 9.7575 1.5075 10.4375 2.1875 C9.385625 3.30125 9.385625 3.30125 8.3125 4.4375 C5.00503932 8.35571336 3.01841614 12.85823424 0.8671875 17.48046875 C-0.86347016 20.75736972 -2.39136829 22.54870089 -5.625 24.3125 C-8.5625 25.1875 -8.5625 25.1875 -10.8984375 25.07421875 C-13.8496804 24.99002413 -15.81193586 25.0714564 -18.5625 26.1875 C-24.96150034 35.20777759 -26.68902465 46.35211161 -25.5625 57.1875 C-24.38057828 60.04022924 -22.75342707 61.99657293 -20.5625 64.1875 C-14.84680175 64.80158328 -11.44994592 64.25960887 -6.5625 61.1875 C-4.4375 61.875 -4.4375 61.875 -2.5625 63.1875 C-1.5725 63.8475 -0.5825 64.5075 0.4375 65.1875 C-1.29536641 69.27088816 -3.12869745 70.60241415 -7.078125 72.42578125 C-12.97176948 74.23279489 -19.10092109 73.96244151 -24.9375 72.125 C-29.98243475 68.40135769 -33.59118356 64.19146378 -35.5625 58.1875 C-36.53155309 51.36332616 -35.86269396 46.38748039 -31.8515625 40.74609375 C-30.5625 39.1875 -30.5625 39.1875 -28.5625 37.1875 C-28.82926204 35.20258358 -28.82926204 35.20258358 -29.5625 33.1875 C-29.8925 32.1975 -30.2225 31.2075 -30.5625 30.1875 C-31.21476562 30.12433594 -31.86703125 30.06117187 -32.5390625 29.99609375 C-37.25755641 29.33494785 -40.69812933 28.72766424 -43.9375 25.0625 C-47.18801659 20.64844622 -50.5625 15.77683842 -50.5625 10.1875 C-43.49961417 9.83695236 -37.93356933 9.94607876 -31.5625 13.1875 C-28.48882581 16.03064862 -27.62884339 17.30845004 -27.3125 21.5 C-27.395 22.386875 -27.4775 23.27375 -27.5625 24.1875 C-28.05621094 23.754375 -28.54992187 23.32125 -29.05859375 22.875 C-29.69925781 22.318125 -30.33992188 21.76125 -31 21.1875 C-31.63808594 20.630625 -32.27617187 20.07375 -32.93359375 19.5 C-34.34363179 18.08292935 -34.34363179 18.08292935 -35.5625 18.1875 C-35.08039063 18.64640625 -34.59828125 19.1053125 -34.1015625 19.578125 C-33.46992188 20.19171875 -32.83828125 20.8053125 -32.1875 21.4375 C-31.56101563 22.04078125 -30.93453125 22.6440625 -30.2890625 23.265625 C-28.58514686 25.16229128 -27.67747693 26.91876433 -26.5625 29.1875 C-25.9025 29.5175 -25.2425 29.8475 -24.5625 30.1875 C-24.45679688 29.46175781 -24.35109375 28.73601563 -24.2421875 27.98828125 C-21.88000446 18.25445801 -13.53227158 12.3469543 -5.5625 7.1875 C-11.78141122 9.85450343 -16.39365698 12.37110517 -20.50390625 17.83203125 C-20.85324219 18.27933594 -21.20257813 18.72664063 -21.5625 19.1875 C-21.8925 19.1875 -22.2225 19.1875 -22.5625 19.1875 C-22.9134803 14.27377581 -22.3077945 11.30544175 -19.5625 7.1875 C-13.21484572 1.51428398 -8.49970075 0.00705369 0 0 Z " fill="#369145" transform="translate(218.5625,6.8125)"/>
<path d="M0 0 C2.97 0 5.94 0 9 0 C11.32330984 5.60526694 13.46745644 11.12524968 15 17 C17.55330579 11.40087258 19.89680715 5.78378035 22 0 C24.97 0 27.94 0 31 0 C28.32639478 7.9012642 25.55041069 15.73310765 22.375 23.44921875 C21.9217334 24.55338135 21.4684668 25.65754395 21.00146484 26.79516602 C20.09572324 28.98626386 19.17964175 31.17312077 18.25244141 33.35522461 C15.09145502 40.94203837 15.09145502 40.94203837 15 49 C17.63435399 51.63435399 19.08031595 51.31742865 22.75 51.5 C27.14707819 51.79067224 30.89150192 52.2881258 35 54 C35 54.33 35 54.66 35 55 C31.7 55 28.4 55 25 55 C25.61875 56.11375 26.2375 57.2275 26.875 58.375 C27.22304688 59.00148437 27.57109375 59.62796875 27.9296875 60.2734375 C29.00897274 62.1612614 29.00897274 62.1612614 31 64 C29.3125 63.875 29.3125 63.875 27 63 C26.195625 62.030625 25.39125 61.06125 24.5625 60.0625 C22.03372529 57.04030583 20.70270571 56.05791592 17 55 C17.66 55.99 18.32 56.98 19 58 C18.625 60.1875 18.625 60.1875 18 62 C14 55.25 14 55.25 14 53 C12.68 52.34 11.36 51.68 10 51 C9.4304474 55.05469851 9.4304474 55.05469851 10 59 C12.35893427 61.76760928 15.04797909 63.89141364 18 66 C17.505 67.98 17.505 67.98 17 70 C16.7525 69.38125 16.505 68.7625 16.25 68.125 C14.79371361 65.64931313 13.62187494 65.04874998 11 64 C11.061875 65.258125 11.12375 66.51625 11.1875 67.8125 C11.32560581 70.62065146 11.35160213 71.59025178 9.48828125 73.76171875 C8.99714844 74.17035156 8.50601563 74.57898438 8 75 C8.05220703 74.03900391 8.05220703 74.03900391 8.10546875 73.05859375 C8.29247989 67.08314242 7.5708887 63.35601812 5 58 C5 56.68 5 55.36 5 54 C2.8826442 55.1389339 2.8826442 55.1389339 1 57 C0.73274904 59.52653421 0.73274904 59.52653421 1.25 62.1875 C1.37890625 63.08855469 1.5078125 63.98960938 1.640625 64.91796875 C1.75921875 65.60503906 1.8778125 66.29210937 2 67 C0.50002556 64.05047042 -0.80023567 61.08510827 -2 58 C-4.39763185 60.39763185 -4.34280586 61.33273498 -4.625 64.625 C-4.69976562 65.44226563 -4.77453125 66.25953125 -4.8515625 67.1015625 C-4.90054687 67.72804688 -4.94953125 68.35453125 -5 69 C-5.66 67.68 -6.32 66.36 -7 65 C-11.455 65.495 -11.455 65.495 -16 66 C-14.515 65.01 -14.515 65.01 -13 64 C-11.64426252 62.68945377 -10.31387169 61.35251497 -9 60 C-7 58 -5 56 -3 54 C-6.37436186 53.66619186 -6.37436186 53.66619186 -10 54 C-11.98239527 55.86124923 -11.98239527 55.86124923 -13 58 C-13.66 57.67 -14.32 57.34 -15 57 C-14.01 55.35 -13.02 53.7 -12 52 C-13.051875 52.495 -14.10375 52.99 -15.1875 53.5 C-18.25452609 54.82779788 -20.62134936 55.30715006 -24 55 C-17.83515335 50.89010223 -13.37025043 49.63657033 -6 49.40625 C-2.37320181 48.91512108 -0.07596144 47.98982885 3 46 C4.95549858 43.31881815 4.95549858 43.31881815 6.3125 40.1875 C6.80363281 39.17042969 7.29476563 38.15335938 7.80078125 37.10546875 C10.31763654 30.58787933 9.95796185 26.6410319 7.3125 20.25 C7.03647949 19.54987793 6.76045898 18.84975586 6.47607422 18.12841797 C5.66507988 16.07946601 4.83563341 14.03900714 4 12 C3.20767673 10.04193223 2.41588337 8.0836498 1.625 6.125 C1.30789063 5.36445312 0.99078125 4.60390625 0.6640625 3.8203125 C0 2 0 2 0 0 Z " fill="#186139" transform="translate(303,50)"/>
<path d="M0 0 C4.48882564 2.07816002 6.83109508 4.71448135 9.3359375 8.828125 C10 11 10 11 10 19 C3.07 19 -3.86 19 -11 19 C-10.01 20.32 -9.02 21.64 -8 23 C-4.044297 23.31900831 -1.02091299 23.24955651 2.8125 22.3125 C3.534375 22.209375 4.25625 22.10625 5 22 C6.8125 23.4375 6.8125 23.4375 8 25 C7 28 7 28 4.625 29.6875 C-1.53136967 31.9165304 -7.42790665 32.16913334 -13.4375 29.4375 C-17.84766978 25.24246045 -20.19023547 21.56105932 -20.5 15.5 C-20.18945495 9.42366853 -17.85095499 5.71874392 -13.375 1.5625 C-8.78933169 -0.56049459 -4.97095798 -0.78531421 0 0 Z " fill="#246942" transform="translate(293,49)"/>
<path d="M0 0 C1.80791016 -0.05607422 1.80791016 -0.05607422 3.65234375 -0.11328125 C7.72672443 0.39543295 9.25117672 1.36035909 12.0625 4.3125 C13.74696418 7.79701809 14.30509272 10.54119306 14.2578125 14.39453125 C14.25136719 15.32587891 14.24492187 16.25722656 14.23828125 17.21679688 C14.22152344 18.17650391 14.20476562 19.13621094 14.1875 20.125 C14.17847656 21.10404297 14.16945312 22.08308594 14.16015625 23.09179688 C14.13667326 25.49880348 14.10080477 27.90568364 14.0625 30.3125 C11.0925 30.3125 8.1225 30.3125 5.0625 30.3125 C5.0625 29.6525 5.0625 28.9925 5.0625 28.3125 C4.49402344 28.63476562 3.92554688 28.95703125 3.33984375 29.2890625 C-0.36555934 30.95426938 -3.95416303 30.90893548 -7.9375 30.3125 C-10.80779869 28.51856332 -12.42881638 27.32986724 -13.9375 24.3125 C-14.39721969 20.2516427 -14.30571155 17.97811318 -12.3125 14.375 C-6.8803683 11.05536396 -1.14344005 11.93460108 5.0625 12.3125 C4.4025 10.9925 3.7425 9.6725 3.0625 8.3125 C-1.2275 8.3125 -5.5175 8.3125 -9.9375 8.3125 C-10.2675 6.0025 -10.5975 3.6925 -10.9375 1.3125 C-7.29542027 0.19535335 -3.79634235 0.07698026 0 0 Z " fill="#176338" transform="translate(234.9375,49.6875)"/>
<path d="M0 0 C4.02660959 1.78618246 6.4563892 4.21088754 8.9375 7.8125 C10 11 10 11 10 19 C3.4 19 -3.2 19 -10 19 C-9.67 19.99 -9.34 20.98 -9 22 C-5.32957922 23.83521039 -1.16482431 23.2647328 2.75 22.375 C5 22 5 22 8 24 C7.71364159 26.76813126 7.18075889 27.8312917 5.125 29.75 C-0.37928949 31.9517158 -6.45777828 32.08179647 -11.9375 29.75 C-17.71830986 24.84507042 -17.71830986 24.84507042 -19 21 C-19.77183293 10.40973421 -19.77183293 10.40973421 -17 6 C-11.64282008 0.74756941 -7.43895683 -1.07140458 0 0 Z " fill="#369146" transform="translate(105,49)"/>
<path d="M0 0 C4.02029471 1.73424478 7.09689762 3.98400982 10 7.25 C11 10 11 10 11 19 C4.07 19 -2.86 19 -10 19 C-9.01 20.32 -8.02 21.64 -7 23 C-3.044297 23.31900831 -0.02091299 23.24955651 3.8125 22.3125 C4.534375 22.209375 5.25625 22.10625 6 22 C7.8125 23.4375 7.8125 23.4375 9 25 C8.05796011 27.5691997 7.34534325 28.78416047 5 30.25 C-0.73759628 31.68439907 -6.57040475 32.12709135 -11.9375 29.3125 C-15.91539823 26.30878093 -17.69395237 23.87424516 -18.50390625 18.9140625 C-18.68160719 8.93911624 -18.68160719 8.93911624 -15.25 4.8125 C-10.87576129 0.44930735 -6.14672366 -1.0892928 0 0 Z " fill="#37914A" transform="translate(136,49)"/>
<path d="M0 0 C4.226604 1.82512445 5.95102297 3.93726671 8 8 C8.34057617 10.67895508 8.34057617 10.67895508 8.29296875 13.51953125 C8.28330078 14.54111328 8.27363281 15.56269531 8.26367188 16.61523438 C8.23853516 17.67033203 8.21339844 18.72542969 8.1875 19.8125 C8.16719727 21.42415039 8.16719727 21.42415039 8.14648438 23.06835938 C8.11122577 25.71275455 8.06194366 28.35611748 8 31 C5.03 31 2.06 31 -1 31 C-1.02505615 30.36908447 -1.0501123 29.73816895 -1.07592773 29.08813477 C-1.19154137 26.24603175 -1.31442316 23.40428917 -1.4375 20.5625 C-1.47681641 19.56927734 -1.51613281 18.57605469 -1.55664062 17.55273438 C-1.59853516 16.60849609 -1.64042969 15.66425781 -1.68359375 14.69140625 C-1.72025146 13.81685791 -1.75690918 12.94230957 -1.79467773 12.04125977 C-1.78181066 10.0072598 -1.78181066 10.0072598 -3 9 C-5.95804573 8.66659529 -5.95804573 8.66659529 -9 9 C-11.05127844 12.07691766 -11.27260872 12.93644999 -11.4140625 16.44921875 C-11.47207031 17.72055664 -11.47207031 17.72055664 -11.53125 19.01757812 C-11.57765625 20.33918945 -11.57765625 20.33918945 -11.625 21.6875 C-11.68300781 23.02651367 -11.68300781 23.02651367 -11.7421875 24.39257812 C-11.83640218 26.5948462 -11.92201588 28.79710722 -12 31 C-14.64 31 -17.28 31 -20 31 C-20 21.1 -20 11.2 -20 1 C-17.36 1 -14.72 1 -12 1 C-12 1.99 -12 2.98 -12 4 C-11.319375 3.34 -10.63875 2.68 -9.9375 2 C-6.26383061 -0.50122172 -4.36916255 -0.54614532 0 0 Z " fill="#409452" transform="translate(171,49)"/>
<path d="M0 0 C0.78052734 -0.01224609 1.56105469 -0.02449219 2.36523438 -0.03710938 C4.39070035 -0.04235217 6.41572552 0.06515672 8.4375 0.1875 C9.0975 0.8475 9.7575 1.5075 10.4375 2.1875 C9.73625 2.93 9.035 3.6725 8.3125 4.4375 C5.68912646 7.49321723 4.28526218 10.69300615 2.6875 14.375 C0.13616315 19.76486606 0.13616315 19.76486606 -2.9453125 21.62890625 C-5.16317673 22.34849543 -7.25364412 22.87965255 -9.5625 23.1875 C-9.5625 23.5175 -9.5625 23.8475 -9.5625 24.1875 C-12.5325 24.1875 -15.5025 24.1875 -18.5625 24.1875 C-16.6657343 16.48188933 -13.91820555 12.88256989 -7.5625 8.1875 C-13.22512819 10.62828801 -16.6622627 12.90544835 -20.43359375 17.796875 C-20.80613281 18.25578125 -21.17867187 18.7146875 -21.5625 19.1875 C-21.8925 19.1875 -22.2225 19.1875 -22.5625 19.1875 C-22.9134803 14.27377581 -22.3077945 11.30544175 -19.5625 7.1875 C-13.21484572 1.51428398 -8.49970075 0.00705369 0 0 Z " fill="#3C924A" transform="translate(218.5625,6.8125)"/>
<path d="M0 0 C1.58206057 0.00667536 3.16410534 0.0186375 4.74609375 0.03515625 C5.55240234 0.03966797 6.35871094 0.04417969 7.18945312 0.04882812 C9.18753131 0.06065107 11.18557158 0.07858711 13.18359375 0.09765625 C13.31877278 2.84930057 13.41774626 5.59430146 13.49609375 8.34765625 C13.53798828 9.12496094 13.57988281 9.90226562 13.62304688 10.703125 C13.74610818 16.46239405 13.74610818 16.46239405 11.0390625 19.51953125 C3.93419945 23.44615871 -2.8221978 23.93183452 -10.81640625 23.09765625 C-14.26692053 21.88855042 -17.11864137 20.493186 -18.81640625 17.09765625 C-18.15640625 17.09765625 -17.49640625 17.09765625 -16.81640625 17.09765625 C-16.48640625 16.10765625 -16.15640625 15.11765625 -15.81640625 14.09765625 C-15.15640625 14.09765625 -14.49640625 14.09765625 -13.81640625 14.09765625 C-13.48640625 12.77765625 -13.15640625 11.45765625 -12.81640625 10.09765625 C-12.295625 10.7525 -11.77484375 11.40734375 -11.23828125 12.08203125 C-8.03334408 14.74936605 -6.17483388 14.51199336 -2.06640625 14.34765625 C-0.8959375 14.3115625 0.27453125 14.27546875 1.48046875 14.23828125 C2.3725 14.191875 3.26453125 14.14546875 4.18359375 14.09765625 C4.18359375 12.11765625 4.18359375 10.13765625 4.18359375 8.09765625 C1.21359375 8.09765625 -1.75640625 8.09765625 -4.81640625 8.09765625 C-4.85882348 5.7647085 -4.85733562 3.43063058 -4.81640625 1.09765625 C-3.81640625 0.09765625 -3.81640625 0.09765625 0 0 Z " fill="#499759" transform="translate(48.81640625,56.90234375)"/>
<path d="M0 0 C0.66 0 1.32 0 2 0 C2.00257813 0.97839844 2.00515625 1.95679688 2.0078125 2.96484375 C2.27278533 11.94742268 3.4135174 18.4135174 10 25 C15.71569825 25.61408328 19.11255408 25.07210887 24 22 C26.125 22.6875 26.125 22.6875 28 24 C28.99 24.66 29.98 25.32 31 26 C29.26713359 30.08338816 27.43380255 31.41491415 23.484375 33.23828125 C17.59073052 35.04529489 11.46157891 34.77494151 5.625 32.9375 C0.58006525 29.21385769 -3.02868356 25.00396378 -5 19 C-5.97810861 12.11205623 -5.2298062 7.1130798 -1.2890625 1.36328125 C-0.65097656 0.68845703 -0.65097656 0.68845703 0 0 Z " fill="#18643A" transform="translate(188,46)"/>
<path d="M0 0 C0.7425 0.0825 1.485 0.165 2.25 0.25 C2.25 3.22 2.25 6.19 2.25 9.25 C1.13625 9.518125 0.0225 9.78625 -1.125 10.0625 C-4.96840951 10.90809019 -4.96840951 10.90809019 -6.75 14.25 C-7.1126117 16.17744369 -7.1126117 16.17744369 -7.1640625 18.26171875 C-7.22207031 19.39770508 -7.22207031 19.39770508 -7.28125 20.55664062 C-7.32765625 21.73516602 -7.32765625 21.73516602 -7.375 22.9375 C-7.43300781 24.13342773 -7.43300781 24.13342773 -7.4921875 25.35351562 C-7.58632494 27.31863475 -7.66924632 29.2842854 -7.75 31.25 C-10.72 31.25 -13.69 31.25 -16.75 31.25 C-16.75 21.35 -16.75 11.45 -16.75 1.25 C-13.78 1.25 -10.81 1.25 -7.75 1.25 C-7.42 2.24 -7.09 3.23 -6.75 4.25 C-6.193125 3.59 -5.63625 2.93 -5.0625 2.25 C-2.75 0.25 -2.75 0.25 0 0 Z " fill="#349046" transform="translate(82.75,48.75)"/>
<path d="M0 0 C0 2.97 0 5.94 0 9 C-0.928125 9.226875 -1.85625 9.45375 -2.8125 9.6875 C-6.68838431 11.28345236 -7.26474269 12.24700164 -9 16 C-9.36225681 18.66853296 -9.59800431 21.14041429 -9.6875 23.8125 C-9.72166016 24.50537109 -9.75582031 25.19824219 -9.79101562 25.91210938 C-9.87286344 27.60752849 -9.93812365 29.30373458 -10 31 C-12.64 31 -15.28 31 -18 31 C-18 21.1 -18 11.2 -18 1 C-15.36 1 -12.72 1 -10 1 C-9.67 1.99 -9.34 2.98 -9 4 C-8.2575 3.34 -7.515 2.68 -6.75 2 C-4 0 -4 0 0 0 Z " fill="#146036" transform="translate(272,49)"/>
<path d="M0 0 C4.02029471 1.73424478 7.09689762 3.98400982 10 7.25 C11 10 11 10 11 19 C4.07 19 -2.86 19 -10 19 C-10 18.67 -10 18.34 -10 18 C-3.73 17.67 2.54 17.34 9 17 C8.67 15.35 8.34 13.7 8 12 C7.38125 11.855625 6.7625 11.71125 6.125 11.5625 C4 11 4 11 2 10 C2 10.99 2 11.98 2 13 C1.15695313 12.97679687 0.31390625 12.95359375 -0.5546875 12.9296875 C-1.65039062 12.91164063 -2.74609375 12.89359375 -3.875 12.875 C-4.96554688 12.85179687 -6.05609375 12.82859375 -7.1796875 12.8046875 C-10.1371051 12.69939466 -10.1371051 12.69939466 -12 15 C-13.0625 12.625 -13.0625 12.625 -14 10 C-13.67 9.34 -13.34 8.68 -13 8 C-13.99 8.495 -13.99 8.495 -15 9 C-16.09506492 12.28519475 -16.09960608 14.73663415 -16.0625 18.1875 C-16.05347656 19.27417969 -16.04445313 20.36085938 -16.03515625 21.48046875 C-16.02355469 22.31191406 -16.01195313 23.14335938 -16 24 C-18.72289613 21.27710387 -18.39495315 19.61607119 -18.5 15.8125 C-18.4255632 10.20492778 -17.66722034 7.22361624 -13.703125 3.26953125 C-9.40079546 0.06251955 -5.33489834 -0.94542502 0 0 Z " fill="#459556" transform="translate(136,49)"/>
<path d="M0 0 C4.0252343 1.80015277 6.45250841 4.20525415 8.9375 7.8125 C10 11 10 11 10 19 C3.4 19 -3.2 19 -10 19 C-10.33 19.66 -10.66 20.32 -11 21 C-11 20.01 -11 19.02 -11 18 C-9.02 17.67 -7.04 17.34 -5 17 C-5 16.34 -5 15.68 -5 15 C-7.64 15 -10.28 15 -13 15 C-12.76368265 11.4552398 -12.59893431 9.58021761 -10 7.0625 C-5.80787366 5.57778859 -2.31022243 6.22059159 2 7 C2 7.99 2 8.98 2 10 C2.66 9.67 3.32 9.34 4 9 C3.67 7.68 3.34 6.36 3 5 C-0.98267831 3.80519651 -4.63964768 4.00740533 -8.7578125 4.16015625 C-11 4 -11 4 -13 2 C-8.65266526 -0.44353578 -4.90198233 -0.80184197 0 0 Z " fill="#4B975A" transform="translate(105,49)"/>
<path d="M0 0 C2.64 0 5.28 0 8 0 C8.66 1.65 9.32 3.3 10 5 C10.99 4.34 11.98 3.68 13 3 C11.87548273 5.9719385 10.77706209 8.33440687 9 11 C8.63566627 13.12337771 8.63566627 13.12337771 8.5859375 15.44921875 C8.52792969 16.72055664 8.52792969 16.72055664 8.46875 18.01757812 C8.42234375 19.33918945 8.42234375 19.33918945 8.375 20.6875 C8.31699219 22.02651367 8.31699219 22.02651367 8.2578125 23.39257812 C8.16359782 25.5948462 8.07798412 27.79710722 8 30 C5.36 30 2.72 30 0 30 C0 20.1 0 10.2 0 0 Z " fill="#3A904C" transform="translate(151,50)"/>
<path d="M0 0 C1.8203125 0.0859375 1.8203125 0.0859375 4.125 0.375 C4.9396875 0.47425781 5.754375 0.57351562 6.59375 0.67578125 C8.60757993 0.94712522 10.61700278 1.25091422 12.625 1.5625 C16.12035638 2.01560175 19.47947432 2.07184746 23 2 C23.495 3.98 23.495 3.98 24 6 C23.34 6.33 22.68 6.66 22 7 C22.66 7.66 23.32 8.32 24 9 C19.25 10.125 19.25 10.125 17 9 C17 8.34 17 7.68 17 7 C16.34 7 15.68 7 15 7 C15 7.99 15 8.98 15 10 C12.37438891 10.08074203 9.75124324 10.1403623 7.125 10.1875 C6.00544922 10.22520508 6.00544922 10.22520508 4.86328125 10.26367188 C2.6953125 10.29296875 2.6953125 10.29296875 -1 10 C-1.66 9.01 -2.32 8.02 -3 7 C-5.12364481 6.77390663 -5.12364481 6.77390663 -6.625 8.5 C-7.07875 8.995 -7.5325 9.49 -8 10 C-8 8.02 -8 6.04 -8 4 C-8.99 4.495 -8.99 4.495 -10 5 C-10.65555119 7.52733235 -10.65555119 7.52733235 -11 10 C-11.66 10 -12.32 10 -13 10 C-12.67 7.36 -12.34 4.72 -12 2 C-10.02 1.67 -8.04 1.34 -6 1 C-5.67 1.99 -5.34 2.98 -5 4 C-4.34 4.33 -3.68 4.66 -3 5 C-2.690625 4.360625 -2.38125 3.72125 -2.0625 3.0625 C-1 1 -1 1 0 0 Z " fill="#D0E1D5" transform="translate(278,85)"/>
<path d="M0 0 C1 3 1 3 -0.4375 6.1875 C-1.2109375 7.5796875 -1.2109375 7.5796875 -2 9 C0.64 8.67 3.28 8.34 6 8 C6 7.67 6 7.34 6 7 C8.64 6.67 11.28 6.34 14 6 C13 8 13 8 11.0625 9.0625 C8 10 8 10 5.65625 9.890625 C2.73316257 9.8025802 0.73542358 9.93209064 -2 11 C-8.51688927 19.15610682 -9.25329066 29.97092114 -10 40 C-10.66 39.67 -11.32 39.34 -12 39 C-12.34236817 36.36525366 -12.5601624 33.83380685 -12.6875 31.1875 C-12.73455078 30.46240234 -12.78160156 29.73730469 -12.83007812 28.99023438 C-13.13603188 23.50814491 -13.13603188 23.50814491 -12.39453125 20.73828125 C-11.83498003 18.91733663 -11.83498003 18.91733663 -12.62109375 16.8203125 C-13.88606536 14.78917733 -13.88606536 14.78917733 -16.34765625 14.2421875 C-17.24355469 14.12101562 -18.13945312 13.99984375 -19.0625 13.875 C-21.78515625 13.4921875 -21.78515625 13.4921875 -24 13 C-24.33 12.34 -24.66 11.68 -25 11 C-22.03 11 -19.06 11 -16 11 C-17.5 7 -17.5 7 -20 6 C-19.67 5.01 -19.34 4.02 -19 3 C-17.86874978 4.07680502 -16.74525081 5.16175635 -15.625 6.25 C-14.99851563 6.85328125 -14.37203125 7.4565625 -13.7265625 8.078125 C-12.02264686 9.97479128 -11.11497693 11.73126433 -10 14 C-9.34 14.33 -8.68 14.66 -8 15 C-7.90847656 14.28457031 -7.81695312 13.56914063 -7.72265625 12.83203125 C-6.87165786 9.49703757 -5.46671273 7.45460827 -3.4375 4.6875 C-2.47650391 3.36298828 -2.47650391 3.36298828 -1.49609375 2.01171875 C-1.00238281 1.34785156 -0.50867188 0.68398438 0 0 Z " fill="#438D53" transform="translate(202,22)"/>
<path d="M0 0 C2.31 0 4.62 0 7 0 C7 0.66 7 1.32 7 2 C7.99 1.67 8.98 1.34 10 1 C15.05120963 0.6326393 17.06933567 0.98649068 21 4 C23.6984589 3.77802187 23.6984589 3.77802187 26 3 C25.835 3.598125 25.67 4.19625 25.5 4.8125 C24.8885876 7.11344336 24.8885876 7.11344336 25 10 C24.38125 9.835 23.7625 9.67 23.125 9.5 C20.07567247 8.78251117 17.98770719 9.20327808 15 10 C15 10.66 15 11.32 15 12 C14.01 12 13.02 12 12 12 C12 11.34 12 10.68 12 10 C11.34 10 10.68 10 10 10 C10 9.34 10 8.68 10 8 C9.01 8.66 8.02 9.32 7 10 C4.95703125 10.1953125 4.95703125 10.1953125 2.8125 10.125 C0.9253125 10.063125 0.9253125 10.063125 -1 10 C-0.67 6.7 -0.34 3.4 0 0 Z " fill="#D7E4DE" transform="translate(190,85)"/>
<path d="M0 0 C0.7425 0.0825 1.485 0.165 2.25 0.25 C2.25 3.22 2.25 6.19 2.25 9.25 C1.156875 9.518125 0.06375 9.78625 -1.0625 10.0625 C-4.36692663 11.12663739 -5.69960422 11.59654664 -7.75 14.25 C-7.75 12.93 -7.75 11.61 -7.75 10.25 C-8.245 9.755 -8.74 9.26 -9.25 8.75 C-9.745 8.255 -10.24 7.76 -10.75 7.25 C-10.75 5.93 -10.75 4.61 -10.75 3.25 C-12.4 2.92 -14.05 2.59 -15.75 2.25 C-15.75 11.49 -15.75 20.73 -15.75 30.25 C-13.44 30.25 -11.13 30.25 -8.75 30.25 C-8.75 25.63 -8.75 21.01 -8.75 16.25 C-8.42 16.25 -8.09 16.25 -7.75 16.25 C-7.75 21.2 -7.75 26.15 -7.75 31.25 C-10.72 31.25 -13.69 31.25 -16.75 31.25 C-16.75 21.35 -16.75 11.45 -16.75 1.25 C-13.78 1.25 -10.81 1.25 -7.75 1.25 C-7.42 2.24 -7.09 3.23 -6.75 4.25 C-6.193125 3.59 -5.63625 2.93 -5.0625 2.25 C-2.75 0.25 -2.75 0.25 0 0 Z " fill="#4F955D" transform="translate(82.75,48.75)"/>
<path d="M0 0 C3.38204201 2.11377626 4.55252095 3.17588687 6 6.875 C6 9.845 6 12.815 6 15.875 C-0.6 15.875 -7.2 15.875 -14 15.875 C-14 15.545 -14 15.215 -14 14.875 C-12.02 14.545 -10.04 14.215 -8 13.875 C-9.65 13.545 -11.3 13.215 -13 12.875 C-13 12.545 -13 12.215 -13 11.875 C-9.04 11.875 -5.08 11.875 -1 11.875 C-3.43071371 7.34601983 -3.43071371 7.34601983 -7.75 5 C-8.4925 4.95875 -9.235 4.9175 -10 4.875 C-10 4.545 -10 4.215 -10 3.875 C-8.02 3.215 -6.04 2.555 -4 1.875 C-4.66 1.215 -5.32 0.555 -6 -0.125 C-3 -1.125 -3 -1.125 0 0 Z " fill="#146239" transform="translate(296,51.125)"/>
<path d="M0 0 C4.7961821 0.10865137 9.1241163 1.2747798 12.875 4.375 C13.71484375 6.375 13.71484375 6.375 13.875 8.375 C11.9375 10.625 11.9375 10.625 9.875 12.375 C5.125 10.5 5.125 10.5 2.875 9.375 C-0.79829964 9.24142547 -3.62352959 9.2078432 -7.125 10.375 C-6.13130489 0.10681716 -6.13130489 0.10681716 0 0 Z " fill="#1A663B" transform="translate(204.125,39.625)"/>
<path d="M0 0 C1.5778125 0.4021875 1.5778125 0.4021875 3.1875 0.8125 C3.1875 1.8025 3.1875 2.7925 3.1875 3.8125 C5.4975 4.1425 7.8075 4.4725 10.1875 4.8125 C10.4375 7.125 10.4375 7.125 10.1875 9.8125 C6.96617977 13.59404983 1.84703771 13.96621644 -2.8125 14.8125 C-2.8125 12.1725 -2.8125 9.5325 -2.8125 6.8125 C-4.1325 6.4825 -5.4525 6.1525 -6.8125 5.8125 C-6.8125 7.7925 -6.8125 9.7725 -6.8125 11.8125 C-7.4725 11.8125 -8.1325 11.8125 -8.8125 11.8125 C-9.23529968 7.49994326 -9.24349539 5.43940238 -6.75 1.8125 C-3.8125 -0.1875 -3.8125 -0.1875 0 0 Z " fill="#1C5F3A" transform="translate(229.8125,62.1875)"/>
<path d="M0 0 C0.99 0.66 1.98 1.32 3 2 C6.87659185 2.18757703 10.05217475 2.23169062 13.8125 1.3125 C14.8953125 1.1578125 14.8953125 1.1578125 16 1 C17.8125 2.4375 17.8125 2.4375 19 4 C18.05796011 6.5691997 17.34534325 7.78416047 15 9.25 C9.04982896 10.73754276 3.32375373 11.12306616 -2.125 8 C-3.07375 7.34 -4.0225 6.68 -5 6 C-4.67 5.01 -4.34 4.02 -4 3 C-4 3.66 -4 4.32 -4 5 C-2.68 5 -1.36 5 0 5 C0 3.35 0 1.7 0 0 Z " fill="#3C904E" transform="translate(126,70)"/>
<path d="M0 0 C-1.41468311 0.96125903 -2.8318364 1.91888325 -4.25 2.875 C-5.03890625 3.40867187 -5.8278125 3.94234375 -6.640625 4.4921875 C-9 6 -9 6 -11.171875 6.9453125 C-13.51329938 8.29613426 -13.94937778 9.542536 -15 12 C-16.26436235 14.05212706 -17.56983178 16.07383489 -18.87890625 18.09765625 C-20.15121193 20.10493004 -20.15121193 20.10493004 -21 23 C-24.48715285 21.83761572 -24.89253076 20.69583905 -26.75 17.69921875 C-29.01055093 14.62628233 -32.02593422 12.3558611 -35 10 C-34.34 9.67 -33.68 9.34 -33 9 C-27.25 12.75 -27.25 12.75 -25 15 C-25 13.35 -25 11.7 -25 10 C-24.34 10 -23.68 10 -23 10 C-23 10.66 -23 11.32 -23 12 C-20.66924071 11.04134491 -20.66924071 11.04134491 -19 8 C-18.67 8.99 -18.34 9.98 -18 11 C-17.67128906 10.55269531 -17.34257812 10.10539062 -17.00390625 9.64453125 C-13.05427785 4.62454284 -6.81209436 -2.27069812 0 0 Z " fill="#E6F6E8" transform="translate(215,14)"/>
<path d="M0 0 C0.33 0 0.66 0 1 0 C1 6.93 1 13.86 1 21 C-1.97 21 -4.94 21 -8 21 C-8 20.34 -8 19.68 -8 19 C-8.56847656 19.32226562 -9.13695312 19.64453125 -9.72265625 19.9765625 C-13.44822968 21.65083392 -16.99598873 21.5547298 -21 21 C-24.125 19.5 -24.125 19.5 -26 17 C-26.10423603 14.12528012 -25.6178095 11.85142845 -25 9 C-23.35 9.33 -21.7 9.66 -20 10 C-19.875 15.75 -19.875 15.75 -21 18 C-20.01 17.34 -19.02 16.68 -18 16 C-14.15110517 15.79006028 -10.68766192 15.81994818 -7 17 C-7 17.99 -7 18.98 -7 20 C-4.69 20 -2.38 20 0 20 C0 13.4 0 6.8 0 0 Z " fill="#306E4B" transform="translate(248,59)"/>
<path d="M0 0 C0.66 0.33 1.32 0.66 2 1 C1.71364159 3.76813126 1.18075889 4.8312917 -0.875 6.75 C-5.56267678 8.62507071 -10.01627421 8.56786081 -15 8 C-18.1875 6.625 -18.1875 6.625 -20 5 C-20 4.34 -20 3.68 -20 3 C-18.68 3.33 -17.36 3.66 -16 4 C-16 4.66 -16 5.32 -16 6 C-15.01 5.67 -14.02 5.34 -13 5 C-12.67 4.34 -12.34 3.68 -12 3 C-12.99 3.33 -13.98 3.66 -15 4 C-15 2.68 -15 1.36 -15 0 C-14.06027344 0.01740234 -14.06027344 0.01740234 -13.1015625 0.03515625 C-11.87566406 0.04869141 -11.87566406 0.04869141 -10.625 0.0625 C-9.40683594 0.07990234 -9.40683594 0.07990234 -8.1640625 0.09765625 C-0.75709779 -0.23659306 -0.75709779 -0.23659306 0 0 Z " fill="#3E924F" transform="translate(111,72)"/>
<path d="M0 0 C1.9375 0.75 1.9375 0.75 4 2 C4.625 4.0625 4.625 4.0625 5 6 C5.66 6.33 6.32 6.66 7 7 C7 10.3 7 13.6 7 17 C5.35 17 3.7 17 2 17 C1.34 17.99 0.68 18.98 0 20 C-0.61875 19.814375 -1.2375 19.62875 -1.875 19.4375 C-4.04160178 18.76313824 -4.04160178 18.76313824 -6 20 C-12.47058824 20.35294118 -12.47058824 20.35294118 -16 18 C-16 17.01 -16 16.02 -16 15 C-9.4 15 -2.8 15 4 15 C2.64002261 7.31124598 2.64002261 7.31124598 0 0 Z " fill="#ECFDF0" transform="translate(111,53)"/>
<path d="M0 0 C1.13115234 0.07831055 1.13115234 0.07831055 2.28515625 0.15820312 C4.1487937 0.28795004 6.01194996 0.42457488 7.875 0.5625 C8.5625 2.375 8.5625 2.375 8.875 4.5625 C7.84375 6.2890625 7.84375 6.2890625 5.875 7.5625 C2.84375 7.9609375 2.84375 7.9609375 -0.625 7.9375 C-2.34203125 7.94910156 -2.34203125 7.94910156 -4.09375 7.9609375 C-7.125 7.5625 -7.125 7.5625 -9.03125 6.2890625 C-10.125 4.5625 -10.125 4.5625 -10.125 0.5625 C-6.91158631 -1.04420684 -3.49541032 -0.26260855 0 0 Z " fill="#369047" transform="translate(45.125,72.4375)"/>
<path d="M0 0 C7.06288583 -0.35054764 12.62893067 -0.24142124 19 3 C22.07367419 5.84314862 22.93365661 7.12095004 23.25 11.3125 C23.1675 12.199375 23.085 13.08625 23 14 C22.56429687 13.57847656 22.12859375 13.15695313 21.6796875 12.72265625 C17.84891233 9.19867476 15.36815964 7.37452277 10 7 C9.34 6.67 8.68 6.34 8 6 C9 4 9 4 12 3 C9.03 2.67 6.06 2.34 3 2 C3.99 4.64 4.98 7.28 6 10 C5.01 10.495 5.01 10.495 4 11 C3.32591692 9.73308493 2.66099503 8.46129251 2 7.1875 C1.443125 6.12595703 1.443125 6.12595703 0.875 5.04296875 C0 3 0 3 0 0 Z " fill="#498A56" transform="translate(168,17)"/>
<path d="M0 0 C2.97 0 5.94 0 9 0 C9.99 2.97 10.98 5.94 12 9 C10.37660195 10.70884005 8.70680947 12.37446717 7 14 C6.34 14 5.68 14 5 14 C4.16235732 12.04350603 3.33000941 10.08474444 2.5 8.125 C2.0359375 7.03445312 1.571875 5.94390625 1.09375 4.8203125 C0 2 0 2 0 0 Z " fill="#1A633D" transform="translate(303,50)"/>
<path d="M0 0 C1.485 0.495 1.485 0.495 3 1 C-1.88112265 3.63580623 -6.67225952 5.61231386 -11.9375 7.375 C-17.37422202 9.24168567 -21.69673197 11.44144012 -26.23046875 14.9609375 C-26.81441406 15.30382813 -27.39835937 15.64671875 -28 16 C-28.99 15.67 -29.98 15.34 -31 15 C-30.67 12.03 -30.34 9.06 -30 6 C-29.34 6.33 -28.68 6.66 -28 7 C-28 8.32 -28 9.64 -28 11 C-27.05125 10.278125 -26.1025 9.55625 -25.125 8.8125 C-19.25351124 5.07899899 -12.51642796 3.72986822 -5.8515625 2.015625 C-2.23342311 1.20186762 -2.23342311 1.20186762 0 0 Z " fill="#CBEDD2" transform="translate(57,31)"/>
<path d="M0 0 C6.93 0 13.86 0 21 0 C20.34 1.65 19.68 3.3 19 5 C19.99 5.33 20.98 5.66 22 6 C20.68 6 19.36 6 18 6 C17.34 5.34 16.68 4.68 16 4 C14.32618981 4.29537827 12.66088045 4.63893903 11 5 C3.92462312 5.63567839 3.92462312 5.63567839 1 3.625 C0 2 0 2 0 0 Z " fill="#E0F6E5" transform="translate(126,68)"/>
<path d="M0 0 C2.04224637 0.11514149 4.08380159 0.24257326 6.125 0.375 C7.26195312 0.44460937 8.39890625 0.51421875 9.5703125 0.5859375 C12.95393616 0.99443876 15.81612441 1.80967569 19 3 C19 3.33 19 3.66 19 4 C15.7 4 12.4 4 9 4 C9.61875 5.11375 10.2375 6.2275 10.875 7.375 C11.39707031 8.31472656 11.39707031 8.31472656 11.9296875 9.2734375 C13.00897274 11.1612614 13.00897274 11.1612614 15 13 C13.3125 12.875 13.3125 12.875 11 12 C10.195625 11.030625 9.39125 10.06125 8.5625 9.0625 C6.03372529 6.04030583 4.70270571 5.05791592 1 4 C1.99 5.485 1.99 5.485 3 7 C2.67 8.32 2.34 9.64 2 11 C0.68 8.36 -0.64 5.72 -2 3 C-1.34 2.01 -0.68 1.02 0 0 Z " fill="#426B54" transform="translate(319,101)"/>
<path d="M0 0 C0.33 0 0.66 0 1 0 C1.33 1.65 1.66 3.3 2 5 C3.65 4.67 5.3 4.34 7 4 C6.835 4.598125 6.67 5.19625 6.5 5.8125 C5.8885876 8.11344336 5.8885876 8.11344336 6 11 C2.125 10.125 2.125 10.125 1 9 C0.67 9.66 0.34 10.32 0 11 C-1.65 11 -3.3 11 -5 11 C-5.625 8.625 -5.625 8.625 -6 6 C-5.34 5.34 -4.68 4.68 -4 4 C-3.01 4 -2.02 4 -1 4 C-0.67 2.68 -0.34 1.36 0 0 Z " fill="#6B8775" transform="translate(257,84)"/>
<path d="M0 0 C4 0 8 0 12 0 C11.835 0.598125 11.67 1.19625 11.5 1.8125 C10.8885876 4.11344336 10.8885876 4.11344336 11 7 C10.38125 6.835 9.7625 6.67 9.125 6.5 C6.07567247 5.78251117 3.98770719 6.20327808 1 7 C1 7.66 1 8.32 1 9 C0.34 9 -0.32 9 -1 9 C-0.67 6.03 -0.34 3.06 0 0 Z " fill="#5F7D6A" transform="translate(204,88)"/>
<path d="M0 0 C1.2065625 0.0309375 1.2065625 0.0309375 2.4375 0.0625 C2.1075 0.7225 1.7775 1.3825 1.4375 2.0625 C0.4475 2.0625 -0.5425 2.0625 -1.5625 2.0625 C-1.8925 3.7125 -2.2225 5.3625 -2.5625 7.0625 C-0.9125 7.3925 0.7375 7.7225 2.4375 8.0625 C2.1075 8.7225 1.7775 9.3825 1.4375 10.0625 C-0.9375 10.25 -0.9375 10.25 -3.5625 10.0625 C-4.2225 9.0725 -4.8825 8.0825 -5.5625 7.0625 C-7.68614481 6.83640663 -7.68614481 6.83640663 -9.1875 8.5625 C-9.64125 9.0575 -10.095 9.5525 -10.5625 10.0625 C-10.5625 8.0825 -10.5625 6.1025 -10.5625 4.0625 C-11.5525 4.5575 -11.5525 4.5575 -12.5625 5.0625 C-13.21805119 7.58983235 -13.21805119 7.58983235 -13.5625 10.0625 C-14.2225 10.0625 -14.8825 10.0625 -15.5625 10.0625 C-15.2325 7.4225 -14.9025 4.7825 -14.5625 2.0625 C-12.5825 1.7325 -10.6025 1.4025 -8.5625 1.0625 C-8.2325 2.0525 -7.9025 3.0425 -7.5625 4.0625 C-6.9025 4.3925 -6.2425 4.7225 -5.5625 5.0625 C-5.253125 4.423125 -4.94375 3.78375 -4.625 3.125 C-3.05351796 0.07447605 -3.05351796 0.07447605 0 0 Z " fill="#819287" transform="translate(280.5625,84.9375)"/>
<path d="M0 0 C2 0.8125 2 0.8125 3.25 2.875 C3.4975 3.514375 3.745 4.15375 4 4.8125 C-1.54165256 8.58554004 -5.34454208 9.35580269 -12 8.8125 C-12 8.4825 -12 8.1525 -12 7.8125 C-10.02 7.4825 -8.04 7.1525 -6 6.8125 C-6 6.1525 -6 5.4925 -6 4.8125 C-7.32 4.1525 -8.64 3.4925 -10 2.8125 C-9.05125 2.503125 -8.1025 2.19375 -7.125 1.875 C-1.26224784 -0.11833573 -1.26224784 -0.11833573 0 0 Z " fill="#145832" transform="translate(297,71.1875)"/>
<path d="M0 0 C5.59823598 2.39924399 7.43773653 6.79915032 10 12 C8.02 12.99 8.02 12.99 6 14 C1.77202073 11.26943005 1.77202073 11.26943005 0 9 C-0.52268615 5.93562432 -0.36208453 3.07771853 0 0 Z " fill="#F2FAF4" transform="translate(312,100)"/>
<path d="M0 0 C0.33 0 0.66 0 1 0 C1.185625 1.03125 1.37125 2.0625 1.5625 3.125 C2.86623779 7.86674262 6.15464707 10.19309799 10 13 C9.67 14.32 9.34 15.64 9 17 C8.7525 16.38125 8.505 15.7625 8.25 15.125 C6.79371361 12.64931313 5.62187494 12.04874998 3 11 C3.0928125 12.8871875 3.0928125 12.8871875 3.1875 14.8125 C3.32560581 17.62065146 3.35160213 18.59025178 1.48828125 20.76171875 C0.99714844 21.17035156 0.50601562 21.57898438 0 22 C0.02320313 21.35933594 0.04640625 20.71867187 0.0703125 20.05859375 C0.15990887 15.76436778 0.10212197 12.34607999 -1.125 8.1875 C-2.11838372 4.56874503 -1.76449399 3.23490565 0 0 Z " fill="#325E45" transform="translate(311,103)"/>
<path d="M0 0 C1.23556641 0.01740234 1.23556641 0.01740234 2.49609375 0.03515625 C3.32238281 0.04417969 4.14867187 0.05320312 5 0.0625 C5.63808594 0.07410156 6.27617187 0.08570312 6.93359375 0.09765625 C7.12109375 2.47265625 7.12109375 2.47265625 6.93359375 5.09765625 C3.48113551 7.39929507 1.98620662 7.44255947 -2.06640625 7.09765625 C-2.72640625 6.43765625 -3.38640625 5.77765625 -4.06640625 5.09765625 C-3.31779097 0.15679541 -3.31779097 0.15679541 0 0 Z " fill="#D6EEE1" transform="translate(233.06640625,66.90234375)"/>
<path d="M0 0 C0.33 1.32 0.66 2.64 1 4 C0.01 4.495 0.01 4.495 -1 5 C-0.34 5.66 0.32 6.32 1 7 C-3.75 8.125 -3.75 8.125 -6 7 C-6 6.34 -6 5.68 -6 5 C-6.66 5 -7.32 5 -8 5 C-8 5.99 -8 6.98 -8 8 C-8.66 8 -9.32 8 -10 8 C-9.74438677 5.6568787 -9.40729228 3.32156597 -9 1 C-6.04335481 -0.4783226 -3.25770263 -0.06032783 0 0 Z " fill="#8CA395" transform="translate(301,87)"/>
<path d="M0 0 C1.98 0 3.96 0 6 0 C4.68 0.33 3.36 0.66 2 1 C2 1.99 2 2.98 2 4 C2.99 4 3.98 4 5 4 C5 4.66 5 5.32 5 6 C3.68 6 2.36 6 1 6 C1 6.66 1 7.32 1 8 C2.65 8 4.3 8 6 8 C6.33 6.35 6.66 4.7 7 3 C8.32 3 9.64 3 11 3 C12.231394 5.46278801 12.07159196 7.2795055 12 10 C11.34 10 10.68 10 10 10 C10 9.34 10 8.68 10 8 C9.01 8.66 8.02 9.32 7 10 C4.95703125 10.1953125 4.95703125 10.1953125 2.8125 10.125 C0.9253125 10.063125 0.9253125 10.063125 -1 10 C-0.67 6.7 -0.34 3.4 0 0 Z " fill="#536F5F" transform="translate(190,85)"/>
<path d="M0 0 C3.3 0 6.6 0 10 0 C10 0.33 10 0.66 10 1 C7.03 1 4.06 1 1 1 C1.433125 1.97582031 1.86625 2.95164063 2.3125 3.95703125 C2.8752871 5.2420618 3.43777134 6.52722502 4 7.8125 C4.42925781 8.77639648 4.42925781 8.77639648 4.8671875 9.75976562 C6.13711041 12.67756469 7 14.78265714 7 18 C6.34 18 5.68 18 5 18 C4.67 16.02 4.34 14.04 4 12 C3.34 12 2.68 12 2 12 C2 14.31 2 16.62 2 19 C1.67 19 1.34 19 1 19 C0.81824219 17.98679687 0.81824219 17.98679687 0.6328125 16.953125 C0.46523438 16.06109375 0.29765625 15.1690625 0.125 14.25 C-0.03742188 13.36828125 -0.19984375 12.4865625 -0.3671875 11.578125 C-0.96796264 9.13052256 -1.77997117 7.19400143 -3 5 C-2.01 4.67 -1.02 4.34 0 4 C0 2.68 0 1.36 0 0 Z " fill="#D3E8DD" transform="translate(302,49)"/>
<path d="M0 0 C1 3 1 3 -0.4375 6.1875 C-1.2109375 7.5796875 -1.2109375 7.5796875 -2 9 C0.64 8.67 3.28 8.34 6 8 C6 7.67 6 7.34 6 7 C8.64 6.67 11.28 6.34 14 6 C13 8 13 8 11.0625 9.0625 C7.42207394 10.17691614 3.99797359 10.38240303 0.20703125 10.55859375 C-0.52128906 10.70425781 -1.24960938 10.84992187 -2 11 C-2.99 12.485 -2.99 12.485 -4 14 C-4.99 13.34 -5.98 12.68 -7 12 C-5.44298069 7.32894208 -2.91552627 3.91294315 0 0 Z " fill="#599965" transform="translate(202,22)"/>
<path d="M0 0 C4.62 0 9.24 0 14 0 C14 0.66 14 1.32 14 2 C14.66 2.33 15.32 2.66 16 3 C11.47806839 5.2609658 7.96161052 5.40012988 3 5 C1 3.625 1 3.625 0 2 C0 1.34 0 0.68 0 0 Z " fill="#EBF8F0" transform="translate(282,68)"/>
<path d="M0 0 C0.90492188 0.02320312 1.80984375 0.04640625 2.7421875 0.0703125 C4.10730469 0.09738281 4.10730469 0.09738281 5.5 0.125 C6.19867188 0.14820312 6.89734375 0.17140625 7.6171875 0.1953125 C6.6271875 2.5053125 5.6371875 4.8153125 4.6171875 7.1953125 C1.9771875 7.1953125 -0.6628125 7.1953125 -3.3828125 7.1953125 C-4.0078125 4.8203125 -4.0078125 4.8203125 -4.3828125 2.1953125 C-2.3828125 0.1953125 -2.3828125 0.1953125 0 0 Z " fill="#627F6C" transform="translate(243.3828125,87.8046875)"/>
<path d="M0 0 C3.125 0.1875 3.125 0.1875 6.125 2.1875 C6.125 3.5075 6.125 4.8275 6.125 6.1875 C2.165 6.1875 -1.795 6.1875 -5.875 6.1875 C-3.49107143 0.22767857 -3.49107143 0.22767857 0 0 Z " fill="#E1F5E5" transform="translate(99.875,55.8125)"/>
<path d="M0 0 C3.0625 0.3125 3.0625 0.3125 4.9375 1.625 C6.0625 3.3125 6.0625 3.3125 6.0625 6.3125 C2.1025 6.3125 -1.8575 6.3125 -5.9375 6.3125 C-4.47848361 0.47643443 -4.47848361 0.47643443 0 0 Z " fill="#E2F3E8" transform="translate(287.9375,55.6875)"/>
<path d="M0 0 C3.125 0.25 3.125 0.25 5 1.5625 C6.125 3.25 6.125 3.25 6.125 6.25 C2.165 6.25 -1.795 6.25 -5.875 6.25 C-3.49662162 0.30405405 -3.49662162 0.30405405 0 0 Z " fill="#EBF9EE" transform="translate(131.875,55.75)"/>
<path d="M0 0 C0.9796875 -0.01417969 1.959375 -0.02835938 2.96875 -0.04296875 C5.5 0.1875 5.5 0.1875 7.5 2.1875 C7.5 3.1775 7.5 4.1675 7.5 5.1875 C3.87 5.1875 0.24 5.1875 -3.5 5.1875 C-3.5 4.1975 -3.5 3.2075 -3.5 2.1875 C-4.82 1.8575 -6.14 1.5275 -7.5 1.1875 C-4.89820337 -0.11339831 -2.9030812 0.01909922 0 0 Z " fill="#EAF6F1" transform="translate(232.5,56.8125)"/>
<path d="M0 0 C1.85625 0.061875 1.85625 0.061875 3.75 0.125 C3.75 0.455 3.75 0.785 3.75 1.125 C1.9865625 1.434375 1.9865625 1.434375 0.1875 1.75 C-4.61714201 2.93833672 -8.00008901 5.42292748 -11.25 9.125 C-12.34506492 12.41019475 -12.34960608 14.86163415 -12.3125 18.3125 C-12.30347656 19.39917969 -12.29445313 20.48585938 -12.28515625 21.60546875 C-12.27355469 22.43691406 -12.26195313 23.26835938 -12.25 24.125 C-14.97289613 21.40210387 -14.64495315 19.74107119 -14.75 15.9375 C-14.6755632 10.32992778 -13.91722034 7.34861624 -9.953125 3.39453125 C-6.64076587 0.92545621 -4.15370581 -0.13845686 0 0 Z " fill="#499058" transform="translate(132.25,48.875)"/>
<path d="M0 0 C-5.18149466 4.07117438 -5.18149466 4.07117438 -8.875 3.75 C-9.90625 3.5025 -10.9375 3.255 -12 3 C-16.42702471 2.49329235 -19.71336354 2.47259878 -23.5 5 C-24.325 5.66 -25.15 6.32 -26 7 C-25.64978759 4.46096004 -25.15988127 3.17906702 -23.4375 1.25 C-18.76977916 -1.14370299 -13.87632135 -0.37486545 -9 1 C-8.01 1.33 -7.02 1.66 -6 2 C-6 1.34 -6 0.68 -6 0 C-3 -1 -3 -1 0 0 Z " fill="#438E53" transform="translate(61,46)"/>
<path d="M0 0 C0.625 1.875 0.625 1.875 1 4 C0.34 4.66 -0.32 5.32 -1 6 C-1.46006346 8.20250992 -1.46006346 8.20250992 -1.625 10.625 C-1.69976562 11.44226563 -1.77453125 12.25953125 -1.8515625 13.1015625 C-1.90054687 13.72804688 -1.94953125 14.35453125 -2 15 C-2.66 13.68 -3.32 12.36 -4 11 C-8.455 11.495 -8.455 11.495 -13 12 C-12.01 11.34 -11.02 10.68 -10 10 C-8.64426252 8.68945377 -7.31387169 7.35251497 -6 6 C-4 4 -2 2 0 0 Z " fill="#335E45" transform="translate(300,104)"/>
<path d="M0 0 C0.99 0.66 1.98 1.32 3 2 C0.69 2.66 -1.62 3.32 -4 4 C-4 5.32 -4 6.64 -4 8 C-5.32 8 -6.64 8 -8 8 C-8 7.01 -8 6.02 -8 5 C-8.99 5.66 -9.98 6.32 -11 7 C-11.33 6.01 -11.66 5.02 -12 4 C-8.01928364 0.13991141 -5.51156547 -0.61239616 0 0 Z " fill="#4B965A" transform="translate(171,49)"/>
<path d="M0 0 C1.13199353 0.9080162 2.25532363 1.82683826 3.375 2.75 C4.00148437 3.26046875 4.62796875 3.7709375 5.2734375 4.296875 C7.08312318 6.08199481 8.00117455 7.67949644 9 10 C6 12 6 12 3.5546875 11.828125 C2.67039063 11.63734375 1.78609375 11.4465625 0.875 11.25 C-0.01445312 11.06953125 -0.90390625 10.8890625 -1.8203125 10.703125 C-2.53960937 10.47109375 -3.25890625 10.2390625 -4 10 C-4.33 9.34 -4.66 8.68 -5 8 C-2.03 8 0.94 8 4 8 C2.5 4 2.5 4 0 3 C0 2.01 0 1.02 0 0 Z " fill="#428E53" transform="translate(182,25)"/>
<path d="M0 0 C0.98484375 0.00902344 1.9696875 0.01804688 2.984375 0.02734375 C4.10585937 0.04474609 4.10585937 0.04474609 5.25 0.0625 C5.25 0.3925 5.25 0.7225 5.25 1.0625 C2.61 1.3925 -0.03 1.7225 -2.75 2.0625 C-3.08 3.0525 -3.41 4.0425 -3.75 5.0625 C-2.76 5.3925 -1.77 5.7225 -0.75 6.0625 C-3.39 6.7225 -6.03 7.3825 -8.75 8.0625 C-9.08 5.7525 -9.41 3.4425 -9.75 1.0625 C-6.43929162 0.06140485 -3.44915231 -0.04106134 0 0 Z " fill="#185A37" transform="translate(233.75,49.9375)"/>
<path d="M0 0 C0 2.97 0 5.94 0 9 C-1.36125 9.433125 -1.36125 9.433125 -2.75 9.875 C-5.32202908 10.76531776 -7.61346766 11.71494413 -10 13 C-10 11.35 -10 9.7 -10 8 C-5.545 7.505 -5.545 7.505 -1 7 C-1 5.35 -1 3.7 -1 2 C-4.72614153 3.11854586 -4.72614153 3.11854586 -7 6 C-7.66 6 -8.32 6 -9 6 C-6.97377245 1.32409027 -5.29661848 0 0 0 Z " fill="#275D40" transform="translate(272,49)"/>
<path d="M0 0 C2.97 0 5.94 0 9 0 C8.07377893 3.70488428 7.32789515 5.16604069 5 8 C4.01 7.67 3.02 7.34 2 7 C0.8125 3.4375 0.8125 3.4375 0 0 Z " fill="#175A36" transform="translate(303,50)"/>
<path d="M0 0 C0 0.66 0 1.32 0 2 C3.3 2 6.6 2 10 2 C9.34 2.66 8.68 3.32 8 4 C5.970031 3.93555654 3.94006504 3.87100031 1.91015625 3.8046875 C-0.24267163 3.82166307 -0.24267163 3.82166307 -2 6 C-2.33 6.66 -2.66 7.32 -3 8 C-3.66 7.67 -4.32 7.34 -5 7 C-4.01 5.35 -3.02 3.7 -2 2 C-3.5778125 2.7425 -3.5778125 2.7425 -5.1875 3.5 C-8.25452609 4.82779788 -10.62134936 5.30715006 -14 5 C-9.39196664 1.92797776 -5.67939822 -0.50112337 0 0 Z " fill="#4A6E59" transform="translate(293,100)"/>
<path d="M0 0 C0.33 0.66 0.66 1.32 1 2 C-0.98 2.33 -2.96 2.66 -5 3 C-5.33 4.65 -5.66 6.3 -6 8 C-4.68 8 -3.36 8 -2 8 C-2.33 7.01 -2.66 6.02 -3 5 C-2.01 5 -1.02 5 0 5 C-0.33 6.65 -0.66 8.3 -1 10 C-3.375 10.125 -3.375 10.125 -6 10 C-8 8 -8 8 -8.3125 5.5625 C-8 3 -8 3 -6.8125 1.1875 C-4.44017475 -0.36678206 -2.77958655 -0.22537188 0 0 Z " fill="#4A6556" transform="translate(238,85)"/>
<path d="M0 0 C2.49361571 1.20381448 4.68143083 2.45428722 7 4 C5.86500606 7.29148243 5.00716624 7.9959869 1.875 9.75 C0.451875 10.36875 0.451875 10.36875 -1 11 C-1 10.34 -1 9.68 -1 9 C-0.34 9 0.32 9 1 9 C0.84402344 8.43410156 0.68804687 7.86820312 0.52734375 7.28515625 C0.33269531 6.55167969 0.13804687 5.81820312 -0.0625 5.0625 C-0.35833984 3.96615234 -0.35833984 3.96615234 -0.66015625 2.84765625 C-0.77230469 2.23792969 -0.88445312 1.62820312 -1 1 C-0.67 0.67 -0.34 0.34 0 0 Z " fill="#276543" transform="translate(212,68)"/>
<path d="M0 0 C0.66 0.33 1.32 0.66 2 1 C2 2.32 2 3.64 2 5 C2.99 4.34 3.98 3.68 5 3 C6.32 3 7.64 3 9 3 C7.65117186 7.04648443 5.65173931 7.95502599 2 10 C1.01 9.67 0.02 9.34 -1 9 C-0.67 6.03 -0.34 3.06 0 0 Z " fill="#DFEFDE" transform="translate(27,37)"/>
<path d="M0 0 C3.3 0 6.6 0 10 0 C10 0.99 10 1.98 10 3 C6.78548731 4.60725635 3.56387464 4.05748185 0 4 C0 2.68 0 1.36 0 0 Z " fill="#F0FAF0" transform="translate(129,69)"/>
<path d="M0 0 C1.32 0 2.64 0 4 0 C4 2.31 4 4.62 4 7 C2.35 7 0.7 7 -1 7 C-1.625 4.625 -1.625 4.625 -2 2 C-1.34 1.34 -0.68 0.68 0 0 Z " fill="#647F6D" transform="translate(286,88)"/>
<path d="M0 0 C-0.01160156 0.89203125 -0.02320312 1.7840625 -0.03515625 2.703125 C-0.04417969 3.87359375 -0.05320312 5.0440625 -0.0625 6.25 C-0.07410156 7.41015625 -0.08570312 8.5703125 -0.09765625 9.765625 C-0.01782092 12.40977128 0.21356222 14.49826091 1 17 C0.34 17 -0.32 17 -1 17 C-1.336611 15.22978678 -1.66917293 13.45880326 -2 11.6875 C-2.185625 10.70136719 -2.37125 9.71523437 -2.5625 8.69921875 C-3 6 -3 6 -3 3 C-4.98 3 -6.96 3 -9 3 C-6.31795079 0.31795079 -3.73391546 0 0 0 Z " fill="#CBEAD1" transform="translate(87,57)"/>
<path d="M0 0 C0.33 0.66 0.66 1.32 1 2 C1.66 2.33 2.32 2.66 3 3 C2.34 3 1.68 3 1 3 C1.33 4.98 1.66 6.96 2 9 C1.01 9 0.02 9 -1 9 C-1 7.02 -1 5.04 -1 3 C-2.32 3.33 -3.64 3.66 -5 4 C-5 5.65 -5 7.3 -5 9 C-5.66 9 -6.32 9 -7 9 C-6.67 6.69 -6.34 4.38 -6 2 C-4.02 2 -2.04 2 0 2 C0 1.34 0 0.68 0 0 Z " fill="#4A6455" transform="translate(224,86)"/>
<path d="M0 0 C0.99 0.33 1.98 0.66 3 1 C2.52433594 2.05767578 2.52433594 2.05767578 2.0390625 3.13671875 C0.95461714 6.12505879 0.6035641 8.65069658 0.375 11.8125 C0.30023437 12.78832031 0.22546875 13.76414062 0.1484375 14.76953125 C0.09945313 15.50558594 0.05046875 16.24164063 0 17 C-0.66 17 -1.32 17 -2 17 C-2.3690205 5.47835991 -2.3690205 5.47835991 0 0 Z " fill="#DEF5E5" transform="translate(25,48)"/>
<path d="M0 0 C1.8046875 1.51953125 1.8046875 1.51953125 3 3 C1.95199219 2.98839844 0.90398437 2.97679687 -0.17578125 2.96484375 C-1.55468572 2.95546345 -2.93359211 2.9463635 -4.3125 2.9375 C-5.00279297 2.92912109 -5.69308594 2.92074219 -6.40429688 2.91210938 C-9.5483025 2.89692094 -11.99420019 2.99806673 -15 4 C-15 3.34 -15 2.68 -15 2 C-10.35435376 -0.47767799 -5.14951562 -0.81170331 0 0 Z " fill="#E0F3E3" transform="translate(180,15)"/>
<path d="M0 0 C0.99 0 1.98 0 3 0 C3.33 1.98 3.66 3.96 4 6 C2.35 6.33 0.7 6.66 -1 7 C-1.625 5.1875 -1.625 5.1875 -2 3 C-1.34 2.01 -0.68 1.02 0 0 Z " fill="#E1EBE3" transform="translate(279,86)"/>
<path d="M0 0 C-0.165 0.598125 -0.33 1.19625 -0.5 1.8125 C-1.1114124 4.11344336 -1.1114124 4.11344336 -1 7 C-3.86724686 6.42655063 -4.8614515 6.1385485 -7 4 C-6.67 3.01 -6.34 2.02 -6 1 C-4 0 -4 0 0 0 Z " fill="#547261" transform="translate(216,88)"/>
<path d="M0 0 C3.96 0 7.92 0 12 0 C11.34 1.32 10.68 2.64 10 4 C6.37 4 2.74 4 -1 4 C-1 3.67 -1 3.34 -1 3 C0.98 2.67 2.96 2.34 5 2 C3.35 1.67 1.7 1.34 0 1 C0 0.67 0 0.34 0 0 Z " fill="#0F5E31" transform="translate(283,63)"/>
<path d="M0 0 C0.66 0.33 1.32 0.66 2 1 C0.515 3.475 0.515 3.475 -1 6 C2.96 6 6.92 6 11 6 C11.33 5.34 11.66 4.68 12 4 C12 4.99 12 5.98 12 7 C7.05 7.33 2.1 7.66 -3 8 C-2 2 -2 2 0 0 Z " fill="#569C64" transform="translate(95,56)"/>
<path d="M0 0 C0.99 0.66 1.98 1.32 3 2 C2.67 4.97 2.34 7.94 2 11 C1.34 11 0.68 11 0 11 C-0.33 10.34 -0.66 9.68 -1 9 C-1.99 9.495 -1.99 9.495 -3 10 C-2.49287967 6.28111761 -1.88391785 3.26545761 0 0 Z " fill="#CCE5D2" transform="translate(196,40)"/>
<path d="M0 0 C0.33 0 0.66 0 1 0 C1 1.65 1 3.3 1 5 C1.66 5 2.32 5 3 5 C3 4.01 3 3.02 3 2 C3.66 2 4.32 2 5 2 C5 2.66 5 3.32 5 4 C5.66 4.33 6.32 4.66 7 5 C6 6 6 6 4.23413086 6.11352539 C3.48526611 6.10828857 2.73640137 6.10305176 1.96484375 6.09765625 C1.15595703 6.09443359 0.34707031 6.09121094 -0.48632812 6.08789062 C-1.33646484 6.07951172 -2.18660156 6.07113281 -3.0625 6.0625 C-3.91650391 6.05798828 -4.77050781 6.05347656 -5.65039062 6.04882812 C-7.76695663 6.03700373 -9.88348685 6.01906769 -12 6 C-12 5.67 -12 5.34 -12 5 C-10.37585622 4.80522261 -8.75063577 4.61940542 -7.125 4.4375 C-6.22007812 4.33308594 -5.31515625 4.22867188 -4.3828125 4.12109375 C-2 4 -2 4 0 5 C0 3.35 0 1.7 0 0 Z " fill="#EAF7EE" transform="translate(290,90)"/>
<path d="M0 0 C1.65 0 3.3 0 5 0 C5 0.99 5 1.98 5 3 C4.01 3.495 4.01 3.495 3 4 C3.66 4.66 4.32 5.32 5 6 C3.35 6.33 1.7 6.66 0 7 C-1.125 2.25 -1.125 2.25 0 0 Z " fill="#597363" transform="translate(297,88)"/>
<path d="M0 0 C2 0.125 2 0.125 4 1 C5.25 3.0625 5.25 3.0625 6 5 C3.42910583 7.11180592 1.36939433 8.66306057 -2 9 C-2.66 8.34 -3.32 7.68 -4 7 C-2.5459375 6.5978125 -2.5459375 6.5978125 -1.0625 6.1875 C0.4534375 5.5996875 0.4534375 5.5996875 2 5 C2.33 4.01 2.66 3.02 3 2 C1.35 2 -0.3 2 -2 2 C-1.34 1.34 -0.68 0.68 0 0 Z " fill="#4A8F5B" transform="translate(139,71)"/>
<path d="M0 0 C2.31 0.33 4.62 0.66 7 1 C7 1.99 7 2.98 7 4 C8.65 4 10.3 4 12 4 C12 4.33 12 4.66 12 5 C10.329375 5.2165625 10.329375 5.2165625 8.625 5.4375 C5.17857953 5.78372035 5.17857953 5.78372035 3 7 C2.01 4.69 1.02 2.38 0 0 Z " fill="#2A6D49" transform="translate(226,62)"/>
<path d="M0 0 C0.7425 0.0825 1.485 0.165 2.25 0.25 C2.25 3.22 2.25 6.19 2.25 9.25 C1.59 8.92 0.93 8.59 0.25 8.25 C0.25 6.27 0.25 4.29 0.25 2.25 C-0.53375 2.765625 -1.3175 3.28125 -2.125 3.8125 C-2.99125 4.286875 -3.8575 4.76125 -4.75 5.25 C-5.41 4.92 -6.07 4.59 -6.75 4.25 C-3.42692308 0.31153846 -3.42692308 0.31153846 0 0 Z " fill="#67A171" transform="translate(82.75,48.75)"/>
<path d="M0 0 C0.33 0.66 0.66 1.32 1 2 C2.65 2 4.3 2 6 2 C6 3.66666667 6 5.33333333 6 7 C4.35 7 2.7 7 1 7 C0.67 4.69 0.34 2.38 0 0 Z " fill="#0F6235" transform="translate(279,70)"/>
<path d="M0 0 C1.9375 0.75 1.9375 0.75 4 2 C4.625 4.0625 4.625 4.0625 5 6 C5.66 6.33 6.32 6.66 7 7 C7 9.64 7 12.28 7 15 C6.01 14.67 5.02 14.34 4 14 C3.33984375 12.109375 3.33984375 12.109375 2.9375 9.75 C2.2814701 6.2934391 1.45603981 3.22408815 0 0 Z " fill="#CCEAD2" transform="translate(111,53)"/>
<path d="M0 0 C0.78375 0.04125 1.5675 0.0825 2.375 0.125 C2.045 0.785 1.715 1.445 1.375 2.125 C0.385 2.125 -0.605 2.125 -1.625 2.125 C-1.955 3.775 -2.285 5.425 -2.625 7.125 C-0.975 7.455 0.675 7.785 2.375 8.125 C2.045 8.785 1.715 9.445 1.375 10.125 C-0.29111905 10.167721 -1.95882885 10.16563832 -3.625 10.125 C-4.625 9.125 -4.625 9.125 -4.8125 5.6875 C-4.59380609 1.53231566 -4.30444478 0.20497356 0 0 Z " fill="#425A4C" transform="translate(280.625,84.875)"/>
<path d="M0 0 C0 2.31 0 4.62 0 7 C-0.66 6.01 -1.32 5.02 -2 4 C-3.03125 4.515625 -4.0625 5.03125 -5.125 5.5625 C-8.73052374 7.13395026 -11.15678443 7.03110662 -15 6 C-15 5.67 -15 5.34 -15 5 C-14.11248047 4.83564453 -14.11248047 4.83564453 -13.20703125 4.66796875 C-9.15184762 3.8542859 -3.50030571 0 0 0 Z " fill="#54925F" transform="translate(76,16)"/>
<path d="M0 0 C1.32 0 2.64 0 4 0 C4.66 1.65 5.32 3.3 6 5 C3 7 3 7 0.8125 6.625 C0.214375 6.41875 -0.38375 6.2125 -1 6 C-1 5.34 -1 4.68 -1 4 C0.32 4 1.64 4 3 4 C3 3.34 3 2.68 3 2 C2.01 2 1.02 2 0 2 C0 1.34 0 0.68 0 0 Z " fill="#E9F6ED" transform="translate(192,87)"/>
<path d="M0 0 C1.32 0 2.64 0 4 0 C3.835 0.598125 3.67 1.19625 3.5 1.8125 C2.8885876 4.11344336 2.8885876 4.11344336 3 7 C1.68 6.67 0.36 6.34 -1 6 C-1.042721 4.33388095 -1.04063832 2.66617115 -1 1 C-0.67 0.67 -0.34 0.34 0 0 Z " fill="#537160" transform="translate(260,88)"/>
<path d="M0 0 C1.32 0 2.64 0 4 0 C4 1.65 4 3.3 4 5 C2.02 5 0.04 5 -2 5 C-1.125 1.125 -1.125 1.125 0 0 Z " fill="#FAFDFD" transform="translate(234,68)"/>
<path d="M0 0 C0 0.99 0 1.98 0 3 C0.309375 4.0209375 0.309375 4.0209375 0.625 5.0625 C0.74875 5.701875 0.8725 6.34125 1 7 C0.34 7.66 -0.32 8.32 -1 9 C-3.125 8.625 -3.125 8.625 -5 8 C-3.8141763 4.62496331 -2.72426311 2.35277269 0 0 Z " fill="#489358" transform="translate(91,52)"/>
<path d="M0 0 C0.33 0 0.66 0 1 0 C1 2.31 1 4.62 1 7 C1.66 7 2.32 7 3 7 C2.34 8.32 1.68 9.64 1 11 C0.2575 10.95875 -0.485 10.9175 -1.25 10.875 C-4.08758952 11.00398134 -5.58773938 11.57051222 -8 13 C-6.8125 11 -6.8125 11 -5 9 C-2.3125 8.75 -2.3125 8.75 0 9 C0 6.03 0 3.06 0 0 Z " fill="#D0E6D9" transform="translate(272,49)"/>
<path d="M0 0 C2.97 0 5.94 0 9 0 C8.34 2.31 7.68 4.62 7 7 C6.67 7 6.34 7 6 7 C6 5.35 6 3.7 6 2 C4.02 2.66 2.04 3.32 0 4 C-0.33 3.34 -0.66 2.68 -1 2 C-0.67 1.34 -0.34 0.68 0 0 Z " fill="#245B3F" transform="translate(325,50)"/>
<path d="M0 0 C1.32 0.33 2.64 0.66 4 1 C3.01 3.97 2.02 6.94 1 10 C0.67 8.68 0.34 7.36 0 6 C-0.66 5.01 -1.32 4.02 -2 3 C-1.34 3 -0.68 3 0 3 C0 2.01 0 1.02 0 0 Z " fill="#4B8D58" transform="translate(194,34)"/>
<path d="M0 0 C-4 2.66666667 -8 5.33333333 -12 8 C-12.33 7.01 -12.66 6.02 -13 5 C-11.40377344 3.96679519 -9.79770894 2.94877571 -8.1875 1.9375 C-7.29417969 1.36902344 -6.40085938 0.80054688 -5.48046875 0.21484375 C-3 -1 -3 -1 0 0 Z " fill="#A1D8AB" transform="translate(215,14)"/>
<path d="M0 0 C1.0625 1.8125 1.0625 1.8125 2 4 C1.67 4.99 1.34 5.98 1 7 C0.01 6.67 -0.98 6.34 -2 6 C-2 7.65 -2 9.3 -2 11 C-2.33 11 -2.66 11 -3 11 C-3.36923077 3.49230769 -3.36923077 3.49230769 -1.5 1 C-1.005 0.67 -0.51 0.34 0 0 Z " fill="#D3E7D8" transform="translate(301,107)"/>
<path d="M0 0 C1.4540625 0.0309375 1.4540625 0.0309375 2.9375 0.0625 C1.9375 3.0625 1.9375 3.0625 -0.0625 4.0625 C-0.0625 4.7225 -0.0625 5.3825 -0.0625 6.0625 C-1.3825 6.0625 -2.7025 6.0625 -4.0625 6.0625 C-4.105221 4.39638095 -4.10313832 2.72867115 -4.0625 1.0625 C-3.0625 0.0625 -3.0625 0.0625 0 0 Z " fill="#DFEFE6" transform="translate(236.0625,86.9375)"/>
<path d="M0 0 C0.33 0 0.66 0 1 0 C1.04898437 0.73605469 1.09796875 1.47210938 1.1484375 2.23046875 C1.22320313 3.20628906 1.29796875 4.18210937 1.375 5.1875 C1.44460937 6.15042969 1.51421875 7.11335938 1.5859375 8.10546875 C2.00215853 11.01508938 2.79874096 13.32890774 4 16 C3.34 16.33 2.68 16.66 2 17 C-0.25998595 13.40537669 -0.20868087 10.43404325 -0.125 6.25 C-0.09792969 4.49429688 -0.09792969 4.49429688 -0.0703125 2.703125 C-0.04710938 1.81109375 -0.02390625 0.9190625 0 0 Z M5 12 C5.33 12.66 5.66 13.32 6 14 C5.34 13.67 4.68 13.34 4 13 C4.33 12.67 4.66 12.34 5 12 Z " fill="#50945D" transform="translate(25,54)"/>
<path d="M0 0 C5.6383837 1.31125202 7.85405343 3.328746 11 8 C10.67 8.99 10.34 9.98 10 11 C9.52949219 10.45730469 9.05898437 9.91460937 8.57421875 9.35546875 C7.95160156 8.64003906 7.32898438 7.92460937 6.6875 7.1875 C6.07261719 6.47980469 5.45773438 5.77210937 4.82421875 5.04296875 C3.26665665 3.29863261 1.67341125 1.63221959 0 0 Z " fill="#B4E3BD" transform="translate(180,23)"/>
<path d="M0 0 C1.98 0 3.96 0 6 0 C4.68 0.33 3.36 0.66 2 1 C2 1.99 2 2.98 2 4 C2.99 4 3.98 4 5 4 C5 4.66 5 5.32 5 6 C3.68 6 2.36 6 1 6 C0.67 6.99 0.34 7.98 0 9 C0 6.03 0 3.06 0 0 Z " fill="#415E4D" transform="translate(190,85)"/>
<path d="M0 0 C4.62 0 9.24 0 14 0 C14 0.66 14 1.32 14 2 C14.66 2.33 15.32 2.66 16 3 C14.35 3.33 12.7 3.66 11 4 C11 3.01 11 2.02 11 1 C7.37 1.33 3.74 1.66 0 2 C0 1.34 0 0.68 0 0 Z " fill="#E2F4EA" transform="translate(282,68)"/>
<path d="M0 0 C1.32 0 2.64 0 4 0 C4 1.98 4 3.96 4 6 C2.35 6.33 0.7 6.66 -1 7 C-0.67 4.69 -0.34 2.38 0 0 Z " fill="#0B6537" transform="translate(223,68)"/>
<path d="M0 0 C0.33 0.66 0.66 1.32 1 2 C1.99 2 2.98 2 4 2 C3.34 3.32 2.68 4.64 2 6 C1.34 6 0.68 6 0 6 C-0.33 6.99 -0.66 7.98 -1 9 C-2.0326802 6.21176345 -2.04509293 5.1322726 -1.0625 2.25 C-0.711875 1.5075 -0.36125 0.765 0 0 Z " fill="#599567" transform="translate(29,36)"/>
<path d="M0 0 C2.64 0 5.28 0 8 0 C6.35 1.65 4.7 3.3 3 5 C2.34 4.01 1.68 3.02 1 2 C0.01 2.66 -0.98 3.32 -2 4 C-1.34 2.68 -0.68 1.36 0 0 Z " fill="#DDF3E8" transform="translate(293,103)"/>
<path d="M0 0 C5.47826087 -0.36521739 5.47826087 -0.36521739 7.875 1.3125 C9 3 9 3 9 6 C7.35 5.67 5.7 5.34 4 5 C4.33 3.68 4.66 2.36 5 1 C3.35 1 1.7 1 0 1 C0 0.67 0 0.34 0 0 Z " fill="#D7F2DF" transform="translate(129,56)"/>
<path d="M0 0 C0.66 0.33 1.32 0.66 2 1 C1.07038578 2.15224028 0.1309875 3.29659176 -0.8125 4.4375 C-1.59560547 5.39462891 -1.59560547 5.39462891 -2.39453125 6.37109375 C-4 8 -4 8 -7 9 C-6.67 8.01 -6.34 7.02 -6 6 C-5.34 6 -4.68 6 -4 6 C-3.896875 5.38125 -3.79375 4.7625 -3.6875 4.125 C-3 2 -3 2 0 0 Z " fill="#479055" transform="translate(68,36)"/>
<path d="M0 0 C0.66 0 1.32 0 2 0 C2.33 2.31 2.66 4.62 3 7 C1.02 7 -0.96 7 -3 7 C-2.34 6.67 -1.68 6.34 -1 6 C-1.0309375 4.7934375 -1.0309375 4.7934375 -1.0625 3.5625 C-1 1 -1 1 0 0 Z " fill="#D3E4D9" transform="translate(268,89)"/>
<path d="M0 0 C-5.16923077 4.06153846 -5.16923077 4.06153846 -9.375 3.75 C-10.24125 3.5025 -11.1075 3.255 -12 3 C-11.67 2.34 -11.34 1.68 -11 1 C-9.35 1.33 -7.7 1.66 -6 2 C-6 1.34 -6 0.68 -6 0 C-3 -1 -3 -1 0 0 Z " fill="#559361" transform="translate(61,46)"/>
<path d="M0 0 C1.5 1.125 1.5 1.125 3 3 C3.1875 6.1875 3.1875 6.1875 3 9 C1.35 7.35 -0.3 5.7 -2 4 C-1.34 2.68 -0.68 1.36 0 0 Z " fill="#56905F" transform="translate(188,22)"/>
<path d="M0 0 C2.1875 0.3125 2.1875 0.3125 4 1 C3.34 2.32 2.68 3.64 2 5 C-0.475 4.01 -0.475 4.01 -3 3 C-1.75 1.4375 -1.75 1.4375 0 0 Z " fill="#408E4E" transform="translate(184,20)"/>
<path d="M0 0 C0.99 0.66 1.98 1.32 3 2 C2.01 3.98 1.02 5.96 0 8 C-0.99 8 -1.98 8 -3 8 C-2.01 5.36 -1.02 2.72 0 0 Z " fill="#2B6D4C" transform="translate(311,86)"/>
<path d="M0 0 C0.33 0 0.66 0 1 0 C1.03738281 0.59167969 1.07476562 1.18335938 1.11328125 1.79296875 C1.52169369 6.70192606 2.21816624 9.82724937 5 14 C4.67 14.66 4.34 15.32 4 16 C1.34493073 13.59384348 0.07835303 11.82040233 -0.265625 8.21875 C-0.25145444 5.46966145 -0.17296687 2.74344679 0 0 Z " fill="#CFECD5" transform="translate(34,55)"/>
<path d="M0 0 C0.66 0.33 1.32 0.66 2 1 C1.43628586 4.26954202 0.50037734 5.82575883 -2 8 C-2.99 7.67 -3.98 7.34 -5 7 C-4.34 6.67 -3.68 6.34 -3 6 C-3 5.34 -3 4.68 -3 4 C-2.34 4 -1.68 4 -1 4 C-0.67 2.68 -0.34 1.36 0 0 Z " fill="#2D6245" transform="translate(216,44)"/>
<path d="M0 0 C1.32 0.66 2.64 1.32 4 2 C1.1875 4.0625 1.1875 4.0625 -2 6 C-2.99 5.67 -3.98 5.34 -5 5 C-4 3 -4 3 -1 2 C-0.67 1.34 -0.34 0.68 0 0 Z " fill="#489E5B" transform="translate(181,18)"/>
<path d="M0 0 C2.36049251 2.14590229 3.61903604 4.14600782 5 7 C5.66 7.66 6.32 8.32 7 9 C4.46089803 8.61479436 3.27248877 8.29902057 1.515625 6.37109375 C1.09796875 5.73300781 0.6803125 5.09492187 0.25 4.4375 C-0.17796875 3.79683594 -0.6059375 3.15617187 -1.046875 2.49609375 C-1.51867187 1.75552734 -1.51867187 1.75552734 -2 1 C-1.34 0.67 -0.68 0.34 0 0 Z " fill="#395B48" transform="translate(327,105)"/>
<path d="M0 0 C2.375 0.3125 2.375 0.3125 5 1 C5.66 1.99 6.32 2.98 7 4 C5.68 4 4.36 4 3 4 C2.67 4.99 2.34 5.98 2 7 C1.34 4.69 0.68 2.38 0 0 Z " fill="#DAEEDF" transform="translate(320,105)"/>
<path d="M0 0 C2.26274788 0.35355436 3.95088852 0.97544426 6 2 C5.625 3.9375 5.625 3.9375 5 6 C4.01 6.495 4.01 6.495 3 7 C3 5.35 3 3.7 3 2 C1.35 2 -0.3 2 -2 2 C-1.34 1.34 -0.68 0.68 0 0 Z " fill="#599668" transform="translate(107,71)"/>
<path d="M0 0 C0.66 0 1.32 0 2 0 C1.67 1.65 1.34 3.3 1 5 C1.66 5 2.32 5 3 5 C3.33 4.01 3.66 3.02 4 2 C4.33 2.99 4.66 3.98 5 5 C3.625 6.5 3.625 6.5 2 8 C1.34 8 0.68 8 0 8 C0 5.36 0 2.72 0 0 Z " fill="#EDFDF1" transform="translate(85,49)"/>
<path d="M0 0 C0.66 0.33 1.32 0.66 2 1 C2 1.99 2 2.98 2 4 C-1.63 4 -5.26 4 -9 4 C-9 3.67 -9 3.34 -9 3 C-4.545 2.505 -4.545 2.505 0 2 C0 1.34 0 0.68 0 0 Z " fill="#B0D4C1" transform="translate(238,58)"/>
<path d="M0 0 C0.33 0 0.66 0 1 0 C1.66 2.64 2.32 5.28 3 8 C1.68 8.33 0.36 8.66 -1 9 C-2.0326802 6.21176345 -2.04509293 5.1322726 -1.0625 2.25 C-0.711875 1.5075 -0.36125 0.765 0 0 Z " fill="#2A6644" transform="translate(311,103)"/>
<path d="M0 0 C1.32 0.33 2.64 0.66 4 1 C4 1.99 4 2.98 4 4 C5.98 4 7.96 4 10 4 C10 4.33 10 4.66 10 5 C3.375 5.25 3.375 5.25 0 3 C0 2.01 0 1.02 0 0 Z " fill="#DCF5E0" transform="translate(95,68)"/>
<path d="M0 0 C1.32 0.66 2.64 1.32 4 2 C2.35 3.98 0.7 5.96 -1 8 C-1.93065133 5.39417629 -2.14917407 4.35801776 -1.0625 1.75 C-0.711875 1.1725 -0.36125 0.595 0 0 Z " fill="#599464" transform="translate(225,7)"/>
<path d="M0 0 C1.32 0.99 2.64 1.98 4 3 C3 6 3 6 0.9375 7.1875 C0.298125 7.455625 -0.34125 7.72375 -1 8 C-1 7.01 -1 6.02 -1 5 C-0.34 5 0.32 5 1 5 C0.67 3.35 0.34 1.7 0 0 Z " fill="#2E5E43" transform="translate(297,71)"/>
<path d="M0 0 C2.64 0.66 5.28 1.32 8 2 C8 2.33 8 2.66 8 3 C5.03 3.66 2.06 4.32 -1 5 C-0.67 3.35 -0.34 1.7 0 0 Z " fill="#236643" transform="translate(228,72)"/>
<path d="M0 0 C0.66 0.66 1.32 1.32 2 2 C0.02 2.99 0.02 2.99 -2 4 C-2 5.65 -2 7.3 -2 9 C-2.33 9 -2.66 9 -3 9 C-3 6.36 -3 3.72 -3 1 C-2.01 0.67 -1.02 0.34 0 0 Z " fill="#338644" transform="translate(89,60)"/>
<path d="M0 0 C4.455 0.99 4.455 0.99 9 2 C9 2.33 9 2.66 9 3 C5.7 3.66 2.4 4.32 -1 5 C-0.67 3.35 -0.34 1.7 0 0 Z " fill="#184F2E" transform="translate(198,45)"/>
<path d="M0 0 C0.66 0 1.32 0 2 0 C1.67 2.31 1.34 4.62 1 7 C0.67 6.34 0.34 5.68 0 5 C-0.99 4.67 -1.98 4.34 -3 4 C-1.625 2 -1.625 2 0 0 Z " fill="#3B8849" transform="translate(192,41)"/>
<path d="M0 0 C1.32 0 2.64 0 4 0 C3 3 3 3 0.9375 4.1875 C0.298125 4.455625 -0.34125 4.72375 -1 5 C-1 1 -1 1 0 0 Z " fill="#EAF9EA" transform="translate(32,40)"/>
<path d="M0 0 C0.99 0.99 1.98 1.98 3 3 C1.9375 4.5625 1.9375 4.5625 0 6 C-3.6875 5.6875 -3.6875 5.6875 -7 5 C-7 4.67 -7 4.34 -7 4 C-4.69 4 -2.38 4 0 4 C0 2.68 0 1.36 0 0 Z " fill="#5C9A6A" transform="translate(188,31)"/>
<path d="M0 0 C0.66 0.33 1.32 0.66 2 1 C2.625 3.0625 2.625 3.0625 3 5 C1.1875 5.6875 1.1875 5.6875 -1 6 C-2.75 4.5625 -2.75 4.5625 -4 3 C-2.68 3 -1.36 3 0 3 C0 2.01 0 1.02 0 0 Z " fill="#D4E4DB" transform="translate(319,108)"/>
<path d="M0 0 C1.65 0.99 3.3 1.98 5 3 C4.67 3.66 4.34 4.32 4 5 C3.01 4.67 2.02 4.34 1 4 C1 5.65 1 7.3 1 9 C0.67 9 0.34 9 0 9 C0 6.03 0 3.06 0 0 Z " fill="#C8E5D2" transform="translate(312,100)"/>
<path d="M0 0 C0.66 0 1.32 0 2 0 C1.67 2.31 1.34 4.62 1 7 C-1.475 6.01 -1.475 6.01 -4 5 C-3.01 4.34 -2.02 3.68 -1 3 C-0.67 2.01 -0.34 1.02 0 0 Z " fill="#CCE6D8" transform="translate(264,88)"/>
<path d="M0 0 C0.66 0 1.32 0 2 0 C2.95024979 3.69541586 2.95024979 6.30458414 2 10 C-0.09350689 6.5980513 -0.17942163 3.94727588 0 0 Z " fill="#CCDFD0" transform="translate(201,87)"/>
<path d="M0 0 C2.31 0 4.62 0 7 0 C5.68 1.65 4.36 3.3 3 5 C2.67 4.01 2.34 3.02 2 2 C1.34 2 0.68 2 0 2 C0 1.34 0 0.68 0 0 Z " fill="#ECFBF4" transform="translate(296,68)"/>
<path d="M0 0 C2.64 0 5.28 0 8 0 C7.34 1.32 6.68 2.64 6 4 C3.61435923 3.42415568 1.33317216 2.77772405 -1 2 C-0.67 1.34 -0.34 0.68 0 0 Z " fill="#E4F5E7" transform="translate(105,69)"/>
<path d="M0 0 C1.98 0 3.96 0 6 0 C6 0.99 6 1.98 6 3 C4.02 3 2.04 3 0 3 C0 2.01 0 1.02 0 0 Z " fill="#F8FCF7" transform="translate(99,69)"/>
<path d="M0 0 C0 0.33 0 0.66 0 1 C-1.918125 1.4640625 -1.918125 1.4640625 -3.875 1.9375 C-6.10101675 2.47605244 -7.94739999 2.9737 -10 4 C-10.66 3.34 -11.32 2.68 -12 2 C-8.09971775 -0.60018816 -4.52565431 -0.15085514 0 0 Z " fill="#69A274" transform="translate(136,49)"/>
<path d="M0 0 C0.33 0.66 0.66 1.32 1 2 C-0.65 3.65 -2.3 5.3 -4 7 C-4.99 6.67 -5.98 6.34 -7 6 C-4.69 4.02 -2.38 2.04 0 0 Z " fill="#579767" transform="translate(35,42)"/>
<path d="M0 0 C1.32 0.66 2.64 1.32 4 2 C3.34 3.32 2.68 4.64 2 6 C1.01 5.34 0.02 4.68 -1 4 C-0.67 2.68 -0.34 1.36 0 0 Z " fill="#559762" transform="translate(196,30)"/>
</svg>
